<?xml version="1.0" encoding="UTF-8"?>
<svg width="48" height="48" viewBox="0 0 48 48" xmlns="http://www.w3.org/2000/svg">
  <!-- 紫色背景 -->
  <rect width="48" height="48" fill="#8B5CF6" rx="6"/>
  
  <!-- 蝴蝶身体 -->
  <ellipse cx="24" cy="24" rx="0.8" ry="9" fill="white"/>
  
  <!-- 蝴蝶触角 -->
  <path d="M23.2 15.8 Q21.6 14.2 21 13.5" stroke="white" stroke-width="0.6" fill="none" stroke-linecap="round"/>
  <path d="M24.8 15.8 Q26.4 14.2 27 13.5" stroke="white" stroke-width="0.6" fill="none" stroke-linecap="round"/>
  <circle cx="21" cy="13.5" r="0.6" fill="white"/>
  <circle cx="27" cy="13.5" r="0.6" fill="white"/>
  
  <!-- 上翅膀 -->
  <path d="M24 18.8 Q16.8 13.1 13.1 16.9 Q11.2 18.8 13.1 21.9 Q16.8 24.4 24 21.9 Z" fill="white" opacity="0.95"/>
  <path d="M24 18.8 Q31.2 13.1 34.9 16.9 Q36.8 18.8 34.9 21.9 Q31.2 24.4 24 21.9 Z" fill="white" opacity="0.95"/>
  
  <!-- 下翅膀 -->
  <path d="M24 26.2 Q18 28.1 15 31.9 Q13.1 34.4 15.6 36.8 Q19.5 35.6 24 31.9 Z" fill="white" opacity="0.9"/>
  <path d="M24 26.2 Q30 28.1 33 31.9 Q34.9 34.4 32.4 36.8 Q28.5 35.6 24 31.9 Z" fill="white" opacity="0.9"/>
  
  <!-- 翅膀装饰点 -->
  <circle cx="16.9" cy="19.5" r="1.1" fill="#8B5CF6" opacity="0.6"/>
  <circle cx="31.1" cy="19.5" r="1.1" fill="#8B5CF6" opacity="0.6"/>
  <circle cx="18.8" cy="30.8" r="0.8" fill="#8B5CF6" opacity="0.4"/>
  <circle cx="29.2" cy="30.8" r="0.8" fill="#8B5CF6" opacity="0.4"/>
</svg>